<?xml version="1.0" standalone="no"?><!DOCTYPE svg PUBLIC "-//W3C//DTD SVG 1.1//EN" "http://www.w3.org/Graphics/SVG/1.1/DTD/svg11.dtd"><svg t="1688371834187" class="icon" viewBox="0 0 1024 1024" version="1.1" xmlns="http://www.w3.org/2000/svg" p-id="2880" xmlns:xlink="http://www.w3.org/1999/xlink" width="200" height="200"><path d="M900.256 817.056h-27.712V428.8A111.296 111.296 0 0 0 761.6 317.856h-166.4V262.4a111.296 111.296 0 0 0-110.944-110.944H262.4A111.296 111.296 0 0 0 151.456 262.4v554.656h-27.744A27.456 27.456 0 0 0 96 844.8c0 15.488 12.192 27.744 27.712 27.744h776.544A27.52 27.52 0 0 0 928 844.8a27.488 27.488 0 0 0-27.744-27.744z m-360.544-499.2v499.2H206.944V262.4c0-30.496 24.928-55.456 55.456-55.456h221.856c30.528 0 55.456 24.96 55.456 55.456v55.456z m277.344 499.2H595.2V373.344h166.4c30.496 0 55.456 24.96 55.456 55.456v388.256z m-360.512-499.2h-166.4c-15.552 0-27.744 12.224-27.744 27.744s12.192 27.712 27.712 27.712h166.4c15.52 0 27.712-12.192 27.712-27.712s-12.16-27.744-27.68-27.744z m0 166.4h-166.4A27.488 27.488 0 0 0 262.4 512c0 15.52 12.192 27.744 27.712 27.744h166.4a27.456 27.456 0 0 0 27.712-27.744 27.424 27.424 0 0 0-27.68-27.744z m0 166.432h-166.4a27.424 27.424 0 0 0-27.712 27.68c0 15.552 12.192 27.744 27.712 27.744h166.4a27.456 27.456 0 0 0 27.712-27.744 27.424 27.424 0 0 0-27.712-27.68z m277.344-166.432H678.4a27.488 27.488 0 0 0-27.744 27.712 27.52 27.52 0 0 0 27.744 27.744h55.456a27.456 27.456 0 0 0 27.712-27.744 27.424 27.424 0 0 0-27.68-27.712z m0 166.432H678.4a27.456 27.456 0 0 0-27.744 27.68c0 15.552 12.224 27.744 27.744 27.744h55.456a27.456 27.456 0 0 0 27.712-27.744 27.392 27.392 0 0 0-27.68-27.68z" fill="#010101" p-id="2881"></path></svg>